<mxfile host="65bd71144e">
    <diagram id="C5RBs43oDa-KdzZeNtuy" name="Page-1">
        <mxGraphModel dx="626" dy="260" grid="1" gridSize="10" guides="1" tooltips="1" connect="1" arrows="1" fold="1" page="1" pageScale="1" pageWidth="827" pageHeight="1169" math="0" shadow="0">
            <root>
                <mxCell id="WIyWlLk6GJQsqaUBKTNV-0"/>
                <mxCell id="WIyWlLk6GJQsqaUBKTNV-1" parent="WIyWlLk6GJQsqaUBKTNV-0"/>
                <mxCell id="mM-vonUXGilaQjceZ_w_-0" value="" style="edgeStyle=orthogonalEdgeStyle;rounded=0;orthogonalLoop=1;jettySize=auto;html=1;" parent="WIyWlLk6GJQsqaUBKTNV-1" source="WIyWlLk6GJQsqaUBKTNV-3" target="WIyWlLk6GJQsqaUBKTNV-11" edge="1">
                    <mxGeometry relative="1" as="geometry"/>
                </mxCell>
                <mxCell id="WIyWlLk6GJQsqaUBKTNV-3" value="PAA溶液の作製" style="rounded=1;whiteSpace=wrap;html=1;fontSize=12;glass=0;strokeWidth=1;shadow=0;" parent="WIyWlLk6GJQsqaUBKTNV-1" vertex="1">
                    <mxGeometry x="160" y="80" width="120" height="40" as="geometry"/>
                </mxCell>
                <mxCell id="mM-vonUXGilaQjceZ_w_-2" value="" style="edgeStyle=orthogonalEdgeStyle;rounded=0;orthogonalLoop=1;jettySize=auto;html=1;" parent="WIyWlLk6GJQsqaUBKTNV-1" source="WIyWlLk6GJQsqaUBKTNV-11" target="mM-vonUXGilaQjceZ_w_-1" edge="1">
                    <mxGeometry relative="1" as="geometry"/>
                </mxCell>
                <mxCell id="WIyWlLk6GJQsqaUBKTNV-11" value="粘度計測" style="rounded=1;whiteSpace=wrap;html=1;fontSize=12;glass=0;strokeWidth=1;shadow=0;" parent="WIyWlLk6GJQsqaUBKTNV-1" vertex="1">
                    <mxGeometry x="320" y="80" width="120" height="40" as="geometry"/>
                </mxCell>
                <mxCell id="mM-vonUXGilaQjceZ_w_-4" style="edgeStyle=orthogonalEdgeStyle;rounded=0;orthogonalLoop=1;jettySize=auto;html=1;entryX=0.5;entryY=0;entryDx=0;entryDy=0;" parent="WIyWlLk6GJQsqaUBKTNV-1" source="mM-vonUXGilaQjceZ_w_-1" target="mM-vonUXGilaQjceZ_w_-3" edge="1">
                    <mxGeometry relative="1" as="geometry">
                        <Array as="points">
                            <mxPoint x="540" y="140"/>
                            <mxPoint x="220" y="140"/>
                        </Array>
                    </mxGeometry>
                </mxCell>
                <mxCell id="mM-vonUXGilaQjceZ_w_-1" value="圧力場計測" style="rounded=1;whiteSpace=wrap;html=1;fontSize=12;glass=0;strokeWidth=1;shadow=0;" parent="WIyWlLk6GJQsqaUBKTNV-1" vertex="1">
                    <mxGeometry x="480" y="80" width="120" height="40" as="geometry"/>
                </mxCell>
                <mxCell id="mM-vonUXGilaQjceZ_w_-5" value="" style="rounded=1;whiteSpace=wrap;html=1;" parent="WIyWlLk6GJQsqaUBKTNV-1" vertex="1">
                    <mxGeometry x="160" y="170" width="440" height="230" as="geometry"/>
                </mxCell>
                <mxCell id="mM-vonUXGilaQjceZ_w_-3" value="落下実験" style="rounded=1;whiteSpace=wrap;html=1;fontSize=12;glass=0;strokeWidth=1;shadow=0;" parent="WIyWlLk6GJQsqaUBKTNV-1" vertex="1">
                    <mxGeometry x="160" y="160" width="120" height="40" as="geometry"/>
                </mxCell>
                <mxCell id="mM-vonUXGilaQjceZ_w_-34" style="edgeStyle=orthogonalEdgeStyle;rounded=0;orthogonalLoop=1;jettySize=auto;html=1;endArrow=blockThin;endFill=1;endSize=4;fontFamily=Times New Roman;dashed=1;" parent="WIyWlLk6GJQsqaUBKTNV-1" source="mM-vonUXGilaQjceZ_w_-6" target="mM-vonUXGilaQjceZ_w_-7" edge="1">
                    <mxGeometry relative="1" as="geometry"/>
                </mxCell>
                <mxCell id="mM-vonUXGilaQjceZ_w_-6" value="US off" style="rounded=1;whiteSpace=wrap;html=1;fontFamily=Times New Roman;" parent="WIyWlLk6GJQsqaUBKTNV-1" vertex="1">
                    <mxGeometry x="189.5" y="240" width="50" height="20" as="geometry"/>
                </mxCell>
                <mxCell id="mM-vonUXGilaQjceZ_w_-33" style="edgeStyle=orthogonalEdgeStyle;rounded=0;orthogonalLoop=1;jettySize=auto;html=1;entryX=0;entryY=0.5;entryDx=0;entryDy=0;endArrow=blockThin;endFill=1;endSize=4;fontFamily=Times New Roman;" parent="WIyWlLk6GJQsqaUBKTNV-1" source="mM-vonUXGilaQjceZ_w_-7" target="mM-vonUXGilaQjceZ_w_-9" edge="1">
                    <mxGeometry relative="1" as="geometry"/>
                </mxCell>
                <mxCell id="mM-vonUXGilaQjceZ_w_-7" value="US off" style="rounded=1;whiteSpace=wrap;html=1;fontFamily=Times New Roman;" parent="WIyWlLk6GJQsqaUBKTNV-1" vertex="1">
                    <mxGeometry x="279.5" y="240" width="50" height="20" as="geometry"/>
                </mxCell>
                <mxCell id="mM-vonUXGilaQjceZ_w_-11" style="edgeStyle=orthogonalEdgeStyle;rounded=0;orthogonalLoop=1;jettySize=auto;html=1;entryX=0;entryY=0.5;entryDx=0;entryDy=0;fontFamily=Times New Roman;" parent="WIyWlLk6GJQsqaUBKTNV-1" source="mM-vonUXGilaQjceZ_w_-9" target="mM-vonUXGilaQjceZ_w_-10" edge="1">
                    <mxGeometry relative="1" as="geometry"/>
                </mxCell>
                <mxCell id="mM-vonUXGilaQjceZ_w_-9" value="US off" style="rounded=1;whiteSpace=wrap;html=1;fontFamily=Times New Roman;" parent="WIyWlLk6GJQsqaUBKTNV-1" vertex="1">
                    <mxGeometry x="394.5" y="240" width="50" height="20" as="geometry"/>
                </mxCell>
                <mxCell id="mM-vonUXGilaQjceZ_w_-15" style="edgeStyle=orthogonalEdgeStyle;rounded=0;orthogonalLoop=1;jettySize=auto;html=1;fontFamily=Times New Roman;entryX=0.474;entryY=0.01;entryDx=0;entryDy=0;entryPerimeter=0;" parent="WIyWlLk6GJQsqaUBKTNV-1" source="mM-vonUXGilaQjceZ_w_-10" target="mM-vonUXGilaQjceZ_w_-13" edge="1">
                    <mxGeometry relative="1" as="geometry">
                        <Array as="points">
                            <mxPoint x="499.5" y="280"/>
                            <mxPoint x="418.5" y="280"/>
                        </Array>
                    </mxGeometry>
                </mxCell>
                <mxCell id="mM-vonUXGilaQjceZ_w_-10" value="US on" style="rounded=1;whiteSpace=wrap;html=1;fontFamily=Times New Roman;" parent="WIyWlLk6GJQsqaUBKTNV-1" vertex="1">
                    <mxGeometry x="474.5" y="240" width="50" height="20" as="geometry"/>
                </mxCell>
                <mxCell id="mM-vonUXGilaQjceZ_w_-12" style="edgeStyle=orthogonalEdgeStyle;rounded=0;orthogonalLoop=1;jettySize=auto;html=1;entryX=0;entryY=0.5;entryDx=0;entryDy=0;fontFamily=Times New Roman;" parent="WIyWlLk6GJQsqaUBKTNV-1" source="mM-vonUXGilaQjceZ_w_-13" target="mM-vonUXGilaQjceZ_w_-14" edge="1">
                    <mxGeometry relative="1" as="geometry"/>
                </mxCell>
                <mxCell id="mM-vonUXGilaQjceZ_w_-13" value="US off" style="rounded=1;whiteSpace=wrap;html=1;fontFamily=Times New Roman;" parent="WIyWlLk6GJQsqaUBKTNV-1" vertex="1">
                    <mxGeometry x="394.5" y="300" width="50" height="20" as="geometry"/>
                </mxCell>
                <mxCell id="mM-vonUXGilaQjceZ_w_-14" value="US on" style="rounded=1;whiteSpace=wrap;html=1;fontFamily=Times New Roman;" parent="WIyWlLk6GJQsqaUBKTNV-1" vertex="1">
                    <mxGeometry x="474.5" y="300" width="50" height="20" as="geometry"/>
                </mxCell>
                <mxCell id="mM-vonUXGilaQjceZ_w_-19" style="edgeStyle=orthogonalEdgeStyle;rounded=0;orthogonalLoop=1;jettySize=auto;html=1;fontFamily=Times New Roman;entryX=0.474;entryY=0.01;entryDx=0;entryDy=0;entryPerimeter=0;exitX=0.561;exitY=1.012;exitDx=0;exitDy=0;exitPerimeter=0;dashed=1;" parent="WIyWlLk6GJQsqaUBKTNV-1" source="mM-vonUXGilaQjceZ_w_-14" target="mM-vonUXGilaQjceZ_w_-22" edge="1">
                    <mxGeometry relative="1" as="geometry">
                        <Array as="points">
                            <mxPoint x="502.5" y="340"/>
                            <mxPoint x="418.5" y="340"/>
                        </Array>
                        <mxPoint x="499.5" y="320" as="sourcePoint"/>
                    </mxGeometry>
                </mxCell>
                <mxCell id="mM-vonUXGilaQjceZ_w_-21" style="edgeStyle=orthogonalEdgeStyle;rounded=0;orthogonalLoop=1;jettySize=auto;html=1;entryX=0;entryY=0.5;entryDx=0;entryDy=0;fontFamily=Times New Roman;" parent="WIyWlLk6GJQsqaUBKTNV-1" source="mM-vonUXGilaQjceZ_w_-22" target="mM-vonUXGilaQjceZ_w_-23" edge="1">
                    <mxGeometry relative="1" as="geometry"/>
                </mxCell>
                <mxCell id="mM-vonUXGilaQjceZ_w_-22" value="US off" style="rounded=1;whiteSpace=wrap;html=1;fontFamily=Times New Roman;" parent="WIyWlLk6GJQsqaUBKTNV-1" vertex="1">
                    <mxGeometry x="394.5" y="360" width="50" height="20" as="geometry"/>
                </mxCell>
                <mxCell id="mM-vonUXGilaQjceZ_w_-23" value="US on" style="rounded=1;whiteSpace=wrap;html=1;fontFamily=Times New Roman;" parent="WIyWlLk6GJQsqaUBKTNV-1" vertex="1">
                    <mxGeometry x="474.5" y="360" width="50" height="20" as="geometry"/>
                </mxCell>
                <mxCell id="mM-vonUXGilaQjceZ_w_-24" value="1st" style="text;html=1;strokeColor=none;fillColor=none;align=center;verticalAlign=middle;whiteSpace=wrap;rounded=0;fontFamily=Times New Roman;" parent="WIyWlLk6GJQsqaUBKTNV-1" vertex="1">
                    <mxGeometry x="529.5" y="240" width="40" height="20" as="geometry"/>
                </mxCell>
                <mxCell id="mM-vonUXGilaQjceZ_w_-25" value="2nd" style="text;html=1;strokeColor=none;fillColor=none;align=center;verticalAlign=middle;whiteSpace=wrap;rounded=0;fontFamily=Times New Roman;" parent="WIyWlLk6GJQsqaUBKTNV-1" vertex="1">
                    <mxGeometry x="530.5" y="300" width="40" height="20" as="geometry"/>
                </mxCell>
                <mxCell id="mM-vonUXGilaQjceZ_w_-26" value="10th" style="text;html=1;strokeColor=none;fillColor=none;align=center;verticalAlign=middle;whiteSpace=wrap;rounded=0;fontFamily=Times New Roman;" parent="WIyWlLk6GJQsqaUBKTNV-1" vertex="1">
                    <mxGeometry x="530.5" y="360" width="40" height="20" as="geometry"/>
                </mxCell>
                <mxCell id="mM-vonUXGilaQjceZ_w_-27" value="" style="endArrow=none;html=1;fontFamily=Times New Roman;fillColor=#f8cecc;strokeColor=#b85450;" parent="WIyWlLk6GJQsqaUBKTNV-1" edge="1">
                    <mxGeometry width="50" height="50" relative="1" as="geometry">
                        <mxPoint x="360" y="390" as="sourcePoint"/>
                        <mxPoint x="360" y="210" as="targetPoint"/>
                    </mxGeometry>
                </mxCell>
                <mxCell id="mM-vonUXGilaQjceZ_w_-28" value="・&lt;br&gt;・&lt;br&gt;・" style="text;html=1;strokeColor=none;fillColor=none;align=center;verticalAlign=middle;whiteSpace=wrap;rounded=0;fontFamily=Times New Roman;" parent="WIyWlLk6GJQsqaUBKTNV-1" vertex="1">
                    <mxGeometry x="529.5" y="320" width="40" height="40" as="geometry"/>
                </mxCell>
                <mxCell id="mM-vonUXGilaQjceZ_w_-29" value="" style="endArrow=blockThin;html=1;fontFamily=Times New Roman;endSize=4;endFill=1;" parent="WIyWlLk6GJQsqaUBKTNV-1" edge="1">
                    <mxGeometry width="50" height="50" relative="1" as="geometry">
                        <mxPoint x="534.5" y="245" as="sourcePoint"/>
                        <mxPoint x="534.5" y="380" as="targetPoint"/>
                    </mxGeometry>
                </mxCell>
                <mxCell id="mM-vonUXGilaQjceZ_w_-31" value="落下実験　計測分" style="text;html=1;strokeColor=none;fillColor=none;align=center;verticalAlign=middle;whiteSpace=wrap;rounded=0;fontFamily=Times New Roman;" parent="WIyWlLk6GJQsqaUBKTNV-1" vertex="1">
                    <mxGeometry x="404.5" y="200" width="120" height="20" as="geometry"/>
                </mxCell>
                <mxCell id="mM-vonUXGilaQjceZ_w_-32" value="落下実験　確認分" style="text;html=1;strokeColor=none;fillColor=none;align=center;verticalAlign=middle;whiteSpace=wrap;rounded=0;fontFamily=Times New Roman;" parent="WIyWlLk6GJQsqaUBKTNV-1" vertex="1">
                    <mxGeometry x="199.5" y="200" width="120" height="20" as="geometry"/>
                </mxCell>
                <mxCell id="mM-vonUXGilaQjceZ_w_-35" value="数回" style="text;html=1;strokeColor=none;fillColor=none;align=center;verticalAlign=middle;whiteSpace=wrap;rounded=0;fontFamily=Times New Roman;" parent="WIyWlLk6GJQsqaUBKTNV-1" vertex="1">
                    <mxGeometry x="239.5" y="250" width="40" height="20" as="geometry"/>
                </mxCell>
            </root>
        </mxGraphModel>
    </diagram>
</mxfile>